<?xml version="1.0" standalone="no"?>
<!DOCTYPE svg PUBLIC "-//W3C//DTD SVG 20010904//EN"
 "http://www.w3.org/TR/2001/REC-SVG-20010904/DTD/svg10.dtd">
<svg version="1.0" xmlns="http://www.w3.org/2000/svg"
 width="70.000000pt" height="70.000000pt" viewBox="0 0 70.000000 70.000000"
 preserveAspectRatio="xMidYMid meet">
<metadata>
Created by potrace 1.14, written by Peter Selinger 2001-2017
</metadata>
<g transform="translate(0.000000,70.000000) scale(0.100000,-0.100000)"
fill="#000000" stroke="none">
<path d="M243 687 c-4 -6 -1 -7 8 -2 12 7 12 6 0 -6 -10 -11 -15 -11 -18 -2
-3 9 -11 7 -25 -7 -12 -11 -25 -17 -30 -14 -4 3 -8 0 -8 -5 0 -6 -5 -11 -11
-11 -16 0 -116 -105 -112 -117 2 -6 -3 -18 -12 -26 -8 -9 -14 -22 -13 -29 2
-7 -3 -12 -11 -10 -12 3 -12 1 0 -14 8 -10 9 -15 2 -11 -19 11 -15 -152 4
-182 8 -13 10 -20 4 -17 -7 5 -9 1 -5 -8 3 -9 10 -16 16 -16 5 0 6 -4 3 -10
-3 -5 -1 -10 4 -10 6 0 11 -6 11 -14 0 -7 12 -25 26 -40 15 -14 24 -26 20 -26
-4 0 -1 -6 6 -14 7 -8 16 -12 21 -9 4 2 10 -3 13 -11 3 -9 10 -13 15 -10 5 3
9 1 9 -5 0 -5 16 -15 35 -22 19 -7 35 -16 35 -20 0 -5 9 -6 20 -4 11 2 18 0
15 -5 -3 -4 33 -9 80 -9 62 -1 85 2 85 12 0 8 4 7 10 -3 6 -10 10 -11 10 -2 0
6 7 12 15 12 8 0 15 4 15 10 0 5 7 7 15 4 8 -4 17 1 21 10 3 9 10 13 15 10 5
-3 9 0 9 7 0 7 3 10 6 6 6 -6 78 61 82 76 1 4 11 17 22 29 15 17 17 24 8 30
-10 6 -9 8 2 8 8 0 20 12 27 28 14 34 15 183 1 200 -6 7 -8 15 -5 19 4 3 -1
12 -11 20 -9 8 -11 12 -5 8 9 -4 11 -1 7 9 -3 9 -10 16 -15 16 -5 0 -9 7 -9
15 0 8 -3 15 -8 15 -4 0 -13 14 -21 31 -7 16 -16 28 -19 25 -3 -3 -13 4 -23
16 -11 11 -19 17 -20 12 0 -5 -4 1 -9 13 -6 15 -15 21 -25 17 -8 -3 -15 -1
-15 5 0 6 -11 11 -24 11 -14 0 -28 5 -32 12 -5 7 -3 8 6 3 8 -5 11 -4 7 2 -8
13 -215 14 -224 0z"/>
</g>
</svg>
